<svg version="1.1" id="Layer_1" xmlns="http://www.w3.org/2000/svg" xmlns:xlink="http://www.w3.org/1999/xlink" x="0px" y="0px" viewBox="0 0 690.9 368.5" style="enable-background:new 0 0 690.9 368.5; fill:#773cbe" xml:space="preserve">
<style type="text/css">
	.st0{display:none;fill:##773cbe;}
	.st1{fill:#773cbe;}
	.st10{fill:none;stroke:#773cbe;stroke-width:50;stroke-miterlimit:10;}
</style>
<rect x="-1574.6" y="-895.8" class="st0" width="3840" height="2160"/>
<g>
	<path class="st1" d="M520.5,170.4L690.9,0h-39.8c-7.8,0-15.3,3.1-20.8,8.6l-213,213l0,0c-9.4,9.3-15.3,22.3-15.3,36.5   c0,28.4,23.1,51.5,51.5,51.5s51.5-23.1,51.5-51.5c0-19.5-10.9-36.6-27-45.3l16.1-16.1c20.4,13.5,33,36.4,33,61.4   c0,40.6-33,73.6-73.6,73.6s-73.6-33-73.6-73.6c0-18.9,7.1-36.7,20-50.4L607.7,0h-39.8c-7.8,0-15.3,3.1-20.8,8.6l-114,114   c-3.2-58-51.4-104.2-110.2-104.2c-29.8,0-58.7,12.3-79.4,33.7L74.1,221.6c-9.4,9.3-15.2,22.2-15.2,36.5c0,28.4,23.1,51.5,51.5,51.5   s51.5-23.1,51.5-51.5c0-19.5-10.9-36.6-27-45.3l16.1-16.1c20.3,13.5,33,36.4,33,61.4c0,40.6-33,73.6-73.6,73.6s-73.6-33-73.6-73.6   c0-19.3,7.3-37.3,20.7-51.1L264.4,0h-39.8c-7.8,0-15.3,3.1-20.8,8.6L33.2,179.1l0,0C11.8,200.1,0,228.1,0,258.1   c0,60.8,49.5,110.4,110.4,110.4c30,0,57.2-12,77.1-31.4l0,0l172.8-172.8l0,0c9.4-9.8,14.4-22.7,14.2-36.4   c-0.5-26.8-21.7-49-48.5-50.5c-29.8-1.7-54.5,22-54.5,51.4h26c5.2,0,10.1-2.7,12.7-7.2c2.7-4.7,7.8-7.8,13.7-7.5   c7.7,0.4,13.8,6.9,13.8,14.6c0,4-1.5,7.8-4.4,10.6L220.5,251.9c-1.8-32.5-17.9-62.2-43.2-81.6l92-92l0,0c0.1-0.1,0.2-0.2,0.3-0.3   l2.2-2.2l0,0c13.8-13.4,31.8-20.7,51.2-20.7c40.6,0,73.6,33,73.6,73.6c0,19.6-7.6,38-21.4,51.8l0,0l-0.8,0.8l0,0   c-0.2,0.2-0.4,0.4-0.6,0.6L199.8,355.9c-4.6,4.6-1.4,12.6,5.2,12.6h175.3c-12.5-8.4-23.6-18.8-32.6-30.8c-2.8-3.7-7.2-5.9-11.8-5.9   H276l67.4-67.4c3.2,58,51.4,104.2,110.2,104.2c60.8,0,110.4-49.5,110.4-110.4C563.9,223.3,547.4,191,520.5,170.4z M453.6,272.9   c-8.1,0-14.7-6.6-14.7-14.7c0-8.1,6.6-14.7,14.7-14.7s14.7,6.6,14.7,14.7C468.3,266.3,461.7,272.9,453.6,272.9z M110.4,272.8   c-8.1,0-14.7-6.6-14.7-14.7c0-4.1,1.7-7.7,4.3-10.4l0,0l0.3-0.3c2.6-2.5,6.2-4,10.1-4c8.1,0,14.7,6.6,14.7,14.7   C125.1,266.2,118.5,272.8,110.4,272.8z"/>
	<g>
		<path class="st1" d="M558.6,347c-1.1-1.1-2.5-2-4-2.7c-1.5-0.7-3.2-1-4.9-1c-1.7,0-3.4,0.3-4.9,1c-1.5,0.7-2.9,1.6-4,2.7    c-1.1,1.1-2,2.5-2.7,4c-0.7,1.5-1,3.2-1,4.9c0,1.7,0.3,3.4,1,4.9c0.7,1.5,1.6,2.9,2.7,4c1.1,1.1,2.5,2,4,2.7c1.5,0.7,3.2,1,4.9,1    c1.7,0,3.4-0.3,4.9-1c1.5-0.7,2.9-1.6,4-2.7c1.1-1.1,2-2.5,2.7-4c0.7-1.5,1-3.2,1-4.9c0-1.7-0.3-3.4-1-4.9    C560.6,349.4,559.7,348.1,558.6,347z M559.3,359.9c-0.5,1.3-1.3,2.4-2.2,3.3c-0.9,0.9-2,1.7-3.3,2.2c-1.3,0.5-2.6,0.8-4,0.8    s-2.8-0.3-4-0.8c-1.3-0.5-2.4-1.3-3.3-2.2c-0.9-0.9-1.7-2-2.2-3.3c-0.5-1.3-0.8-2.6-0.8-4c0-1.4,0.3-2.8,0.8-4    c0.5-1.3,1.3-2.4,2.2-3.3c0.9-0.9,2-1.7,3.3-2.2c1.3-0.5,2.6-0.8,4-0.8s2.8,0.3,4,0.8c1.3,0.5,2.4,1.3,3.3,2.2    c0.9,0.9,1.7,2,2.2,3.3c0.5,1.3,0.8,2.6,0.8,4C560.1,357.3,559.8,358.6,559.3,359.9z"/>
		<path class="st1" d="M554.5,355.8c0.6-0.6,1-1.6,1-2.9c0-1.4-0.4-2.5-1.2-3.2c-0.8-0.7-2.1-1.1-3.9-1.1h-5.6V363h2.6v-5.9h1.9    l3.6,5.9h2.8l-3.7-6.1C553.1,356.8,553.9,356.4,554.5,355.8z M550.6,354.8c-0.4,0-0.8,0.1-1.2,0.1h-1.9v-4h1.9c0.4,0,0.8,0,1.2,0    c0.4,0,0.8,0.1,1.1,0.2c0.3,0.1,0.6,0.3,0.8,0.6c0.2,0.3,0.3,0.6,0.3,1.1c0,0.5-0.1,0.8-0.3,1.1c-0.2,0.3-0.5,0.5-0.8,0.6    C551.4,354.7,551,354.8,550.6,354.8z"/>
	</g>
	<path class="st5" d="M478,212.9l-34.8,34.8c2.7-2.6,6.3-4.2,10.3-4.2c8.1,0,14.7,6.6,14.7,14.7H505   C505,238.6,494.1,221.6,478,212.9z"/>
</g>
</svg>